<svg width="521" height="181" viewBox="0 0 521 181" fill="none" xmlns="http://www.w3.org/2000/svg">
<path d="M124.984 5.59459C109.298 7.73242 100.365 17.1171 97.1329 34.9082C96.0799 40.7057 96.0072 54.6559 96.9877 60.0911C98.6944 69.3671 101.89 75.9617 107.01 80.7084C111.113 84.4768 115.87 86.7596 122.697 88.2089C125.783 88.8974 127.635 89.0423 133.336 89.0423C140.635 89.0423 142.741 88.7887 148.043 87.1944C151.456 86.1798 156.177 84.1145 157.194 83.2086C157.811 82.6651 157.847 81.3969 157.847 62.2651C157.847 46.938 157.738 41.829 157.411 41.5028C157.085 41.1767 153.49 41.068 143.467 41.068C131.666 41.068 129.85 41.1405 129.378 41.6478C128.906 42.1188 128.797 43.2783 128.797 48.8222C128.797 53.4602 128.943 55.5618 129.233 55.8517C129.524 56.1415 131.339 56.2865 135.043 56.2865H140.417V64.258V72.2296L139.437 72.4832C138.856 72.6644 135.806 72.7731 132.61 72.7731C127.417 72.7369 126.582 72.6644 124.694 71.9035C120.119 70.0918 116.451 65.2364 114.999 59.004C113.546 52.9529 113.437 42.4087 114.781 36.6474C117.286 25.8858 123.314 21.5015 135.588 21.5015C140.381 21.5015 143.104 21.8638 147.789 23.0233C150.258 23.6755 151.057 23.748 151.275 23.3857C151.42 23.1683 152.255 19.9796 153.09 16.3562L154.652 9.76154L153.853 9.10932C152.763 8.2397 147.934 6.75409 143.94 6.06563C139.909 5.41342 128.507 5.08731 124.984 5.59459Z" fill="black"/>
<path d="M235.265 8.52902C234.648 9.145 234.648 86.759 235.265 87.375C235.882 87.991 250.843 87.991 251.46 87.375C251.787 87.0489 251.896 82.737 251.896 70.1637V53.3872H263.516H275.136V70.2361C275.136 86.5054 275.172 87.0851 275.826 87.4475C276.262 87.6649 279.53 87.8098 283.996 87.8098C290.278 87.8098 291.513 87.7373 291.985 87.23C292.493 86.7228 292.566 82.6645 292.566 47.952C292.566 13.2395 292.493 9.18124 291.985 8.67396C291.513 8.16668 290.278 8.09421 283.996 8.09421C279.53 8.09421 276.262 8.23914 275.826 8.45655C275.172 8.81889 275.136 9.36241 275.136 23.3126V37.8064H263.516H251.896V23.3851C251.896 12.6597 251.787 8.85513 251.46 8.52902C250.843 7.91304 235.882 7.91304 235.265 8.52902Z" fill="black"/>
<path d="M358.146 8.67396C357.638 9.18124 357.565 13.2395 357.565 47.952C357.565 82.6645 357.638 86.7228 358.146 87.2301C358.618 87.7011 359.671 87.8098 364.101 87.8098C370.02 87.8098 370.638 87.5924 370.638 85.7082C370.638 85.1647 370.783 84.4762 371.001 84.1864C371.291 83.7516 371.4 83.7516 371.981 84.2588C373.179 85.3459 377.864 87.4837 380.732 88.2446C384.581 89.2592 392.352 89.3317 395.511 88.3896C405.025 85.527 409.092 78.099 409.71 62.2646C410.436 44.7272 405.352 34.6178 394.676 32.4075C389.556 31.3567 382.33 32.1538 377.392 34.3279C376.23 34.8352 375.213 35.27 375.14 35.27C375.068 35.27 374.995 29.3275 374.995 22.0444C374.995 9.36241 374.959 8.8189 374.305 8.45655C373.869 8.23915 370.601 8.09421 366.135 8.09421C359.853 8.09421 358.618 8.16668 358.146 8.67396ZM387.995 46.8287C391.336 48.5318 392.57 52.1914 392.606 60.4529C392.606 71.9392 390.755 75.1278 384.073 75.1278C381.168 75.1278 377.137 74.1857 375.576 73.1711L374.632 72.5914V60.4166V48.2781L376.375 47.5534C380.769 45.6692 385.162 45.3794 387.995 46.8287Z" fill="black"/>
<path d="M172.917 10.2683C168.523 11.3915 165.908 14.4352 165.545 18.7833C165.328 21.6459 166.054 23.8562 167.942 25.9215C173.825 32.4437 184.464 28.2767 184.428 19.508C184.428 17.8412 184.174 16.6455 183.629 15.5585C181.704 11.5365 176.984 9.21747 172.917 10.2683Z" fill="black"/>
<path d="M198.626 18.1674C198.299 18.3848 198.154 20.5588 198.081 26.1752L197.972 33.9293L193.869 34.9076C191.581 35.4512 189.584 36.0671 189.403 36.2483C189.221 36.4295 189.112 38.9297 189.148 42.0096L189.257 47.4085L193.615 47.5897L197.972 47.7709L198.154 62.0834C198.372 77.2294 198.372 77.483 200.224 81.0702C201.93 84.3676 206.143 87.3026 210.754 88.3896C215.33 89.4404 225.315 88.8606 227.058 87.4113C227.748 86.8677 227.785 75.6713 227.131 75.2727C226.877 75.1278 225.352 75.0191 223.718 75.0916C218.344 75.2365 215.911 74.0045 215.221 70.671C215.003 69.5115 214.894 64.801 214.93 58.2788L215.039 47.7709L220.849 47.6621C225.788 47.5897 226.732 47.481 227.131 46.9737C227.676 46.2128 227.748 35.1975 227.204 34.1467C226.841 33.4945 226.369 33.4583 220.849 33.4583H214.858V25.8853C214.858 19.3269 214.785 18.2761 214.277 18.0949C213.441 17.7688 199.134 17.8413 198.626 18.1674Z" fill="black"/>
<path d="M166.635 33.8931C166.308 34.2192 166.199 40.6327 166.199 60.4891C166.199 84.3313 166.235 86.6865 166.816 87.1213C167.252 87.5199 169.177 87.6649 174.769 87.7373C181.813 87.846 182.176 87.8098 182.866 87.1213C183.629 86.3604 183.629 86.1068 183.629 60.3441C183.629 40.5964 183.52 34.2192 183.193 33.8931C182.576 33.2771 167.252 33.2771 166.635 33.8931Z" fill="black"/>
<path d="M300.264 33.7844C299.901 34.0018 299.828 38.205 299.901 55.2351L300.01 76.396L300.954 78.86C303.06 84.1864 306.002 86.7953 311.848 88.3896C313.591 88.8969 315.515 89.0418 319.619 89.0418C324.485 89.0056 325.392 88.9331 328.334 88.0272C330.149 87.4837 332.909 86.4329 334.507 85.6358C336.104 84.8749 337.521 84.3313 337.666 84.44C337.847 84.5125 337.956 85.056 337.956 85.6358C337.956 87.5924 338.574 87.8098 344.093 87.8098C347.47 87.8098 349.213 87.6649 349.504 87.375C349.831 87.0489 349.939 80.563 349.939 60.4167C349.939 36.5744 349.867 33.8931 349.358 33.6757C348.233 33.2409 333.78 33.422 333.308 33.8931C332.982 34.2192 332.873 39.0746 332.873 53.4959V72.6276L330.44 73.7871C328.188 74.8379 327.68 74.9466 324.267 74.9466C321.107 74.9466 320.454 74.8379 319.546 74.1857C317.222 72.4827 317.258 72.845 317.258 52.7712C317.258 36.7194 317.186 34.5453 316.677 34.038C316.205 33.5308 314.934 33.4583 308.434 33.4583C304.186 33.4583 300.518 33.6032 300.264 33.7844Z" fill="black"/>
<path d="M335.6 153.425C335.6 152.142 335.342 151.125 334.825 150.375C334.325 149.625 333.525 149.25 332.425 149.25C331.925 149.25 331.45 149.325 331 149.475C330.567 149.625 330.217 149.792 329.95 149.975V157.5C330.167 157.55 330.442 157.6 330.775 157.65C331.125 157.683 331.542 157.7 332.025 157.7C333.142 157.7 334.017 157.325 334.65 156.575C335.283 155.808 335.6 154.758 335.6 153.425ZM338.7 153.475C338.7 154.525 338.542 155.475 338.225 156.325C337.925 157.158 337.483 157.875 336.9 158.475C336.333 159.075 335.642 159.533 334.825 159.85C334.008 160.167 333.083 160.325 332.05 160.325C331.05 160.325 330.092 160.25 329.175 160.1C328.275 159.95 327.525 159.783 326.925 159.6V141.1L329.95 140.6V147.375C330.3 147.192 330.725 147.025 331.225 146.875C331.742 146.725 332.308 146.65 332.925 146.65C333.842 146.65 334.658 146.817 335.375 147.15C336.108 147.467 336.717 147.925 337.2 148.525C337.683 149.125 338.05 149.85 338.3 150.7C338.567 151.533 338.7 152.458 338.7 153.475ZM352.224 146.925C350.874 151.892 349.307 156.392 347.524 160.425C347.191 161.175 346.849 161.817 346.499 162.35C346.149 162.883 345.757 163.325 345.324 163.675C344.891 164.025 344.407 164.275 343.874 164.425C343.341 164.592 342.724 164.675 342.024 164.675C341.557 164.675 341.091 164.625 340.624 164.525C340.174 164.425 339.832 164.317 339.599 164.2L340.149 161.775C340.749 162.008 341.341 162.125 341.924 162.125C342.707 162.125 343.316 161.933 343.749 161.55C344.199 161.183 344.591 160.608 344.924 159.825C343.974 157.992 343.057 155.992 342.174 153.825C341.307 151.658 340.532 149.358 339.849 146.925H343.074C343.241 147.625 343.441 148.383 343.674 149.2C343.924 150.017 344.191 150.85 344.474 151.7C344.757 152.533 345.057 153.367 345.374 154.2C345.691 155.033 346.007 155.808 346.324 156.525C346.857 155.042 347.357 153.467 347.824 151.8C348.291 150.117 348.716 148.492 349.099 146.925H352.224ZM364.948 157.875C365.881 157.875 366.59 157.825 367.073 157.725V154.375C366.906 154.325 366.665 154.275 366.348 154.225C366.031 154.175 365.681 154.15 365.298 154.15C364.965 154.15 364.623 154.175 364.273 154.225C363.94 154.275 363.631 154.367 363.348 154.5C363.081 154.633 362.865 154.825 362.698 155.075C362.531 155.308 362.448 155.608 362.448 155.975C362.448 156.692 362.673 157.192 363.123 157.475C363.573 157.742 364.181 157.875 364.948 157.875ZM364.698 146.6C365.698 146.6 366.54 146.725 367.223 146.975C367.906 147.225 368.448 147.575 368.848 148.025C369.265 148.475 369.556 149.025 369.723 149.675C369.906 150.308 369.998 151.008 369.998 151.775V159.7C369.531 159.8 368.823 159.917 367.873 160.05C366.94 160.2 365.881 160.275 364.698 160.275C363.915 160.275 363.198 160.2 362.548 160.05C361.898 159.9 361.34 159.658 360.873 159.325C360.423 158.992 360.065 158.558 359.798 158.025C359.548 157.492 359.423 156.833 359.423 156.05C359.423 155.3 359.565 154.667 359.848 154.15C360.148 153.633 360.548 153.217 361.048 152.9C361.548 152.567 362.123 152.333 362.773 152.2C363.44 152.05 364.131 151.975 364.848 151.975C365.181 151.975 365.531 152 365.898 152.05C366.265 152.083 366.656 152.15 367.073 152.25V151.75C367.073 151.4 367.031 151.067 366.948 150.75C366.865 150.433 366.715 150.158 366.498 149.925C366.298 149.675 366.023 149.483 365.673 149.35C365.34 149.217 364.915 149.15 364.398 149.15C363.698 149.15 363.056 149.2 362.473 149.3C361.89 149.4 361.415 149.517 361.048 149.65L360.673 147.2C361.056 147.067 361.615 146.933 362.348 146.8C363.081 146.667 363.865 146.6 364.698 146.6ZM381.152 149.65C380.902 149.567 380.552 149.483 380.102 149.4C379.669 149.3 379.161 149.25 378.577 149.25C378.244 149.25 377.886 149.283 377.502 149.35C377.136 149.417 376.877 149.475 376.727 149.525V160H373.702V147.55C374.286 147.333 375.011 147.133 375.877 146.95C376.761 146.75 377.736 146.65 378.802 146.65C379.002 146.65 379.236 146.667 379.502 146.7C379.769 146.717 380.036 146.75 380.302 146.8C380.569 146.833 380.827 146.883 381.077 146.95C381.327 147 381.527 147.05 381.677 147.1L381.152 149.65ZM383.635 143.475L386.66 142.975V146.925H391.31V149.45H386.66V154.775C386.66 155.825 386.827 156.575 387.16 157.025C387.494 157.475 388.06 157.7 388.86 157.7C389.41 157.7 389.894 157.642 390.31 157.525C390.744 157.408 391.085 157.3 391.335 157.2L391.835 159.6C391.485 159.75 391.027 159.9 390.46 160.05C389.894 160.217 389.227 160.3 388.46 160.3C387.527 160.3 386.744 160.175 386.11 159.925C385.494 159.675 385.002 159.317 384.635 158.85C384.269 158.367 384.01 157.792 383.86 157.125C383.71 156.442 383.635 155.667 383.635 154.8V143.475ZM394.235 160V141.1L397.26 140.6V147.075C397.593 146.958 397.976 146.858 398.41 146.775C398.86 146.692 399.301 146.65 399.735 146.65C400.785 146.65 401.651 146.8 402.335 147.1C403.035 147.383 403.593 147.792 404.01 148.325C404.426 148.842 404.718 149.467 404.885 150.2C405.068 150.933 405.16 151.75 405.16 152.65V160H402.135V153.125C402.135 152.425 402.085 151.833 401.985 151.35C401.901 150.85 401.751 150.45 401.535 150.15C401.335 149.833 401.06 149.608 400.71 149.475C400.36 149.325 399.926 149.25 399.41 149.25C399.01 149.25 398.601 149.292 398.185 149.375C397.768 149.458 397.46 149.533 397.26 149.6V160H394.235ZM419.51 159.6C418.927 159.75 418.169 159.9 417.235 160.05C416.302 160.217 415.277 160.3 414.16 160.3C413.11 160.3 412.227 160.15 411.51 159.85C410.81 159.55 410.244 159.133 409.81 158.6C409.394 158.067 409.094 157.433 408.91 156.7C408.727 155.95 408.635 155.133 408.635 154.25V146.925H411.66V153.775C411.66 155.175 411.86 156.175 412.26 156.775C412.677 157.375 413.394 157.675 414.41 157.675C414.777 157.675 415.16 157.658 415.56 157.625C415.977 157.592 416.285 157.55 416.485 157.5V146.925H419.51V159.6ZM430.811 149.65C430.561 149.567 430.211 149.483 429.761 149.4C429.327 149.3 428.819 149.25 428.236 149.25C427.902 149.25 427.544 149.283 427.161 149.35C426.794 149.417 426.536 149.475 426.386 149.525V160H423.361V147.55C423.944 147.333 424.669 147.133 425.536 146.95C426.419 146.75 427.394 146.65 428.461 146.65C428.661 146.65 428.894 146.667 429.161 146.7C429.427 146.717 429.694 146.75 429.961 146.8C430.227 146.833 430.486 146.883 430.736 146.95C430.986 147 431.186 147.05 431.336 147.1L430.811 149.65ZM442.119 153.525C442.119 152.175 441.81 151.125 441.194 150.375C440.594 149.625 439.619 149.25 438.269 149.25C437.985 149.25 437.685 149.267 437.369 149.3C437.069 149.317 436.769 149.367 436.469 149.45V156.925C436.735 157.108 437.085 157.283 437.519 157.45C437.969 157.6 438.444 157.675 438.944 157.675C440.044 157.675 440.844 157.3 441.344 156.55C441.86 155.8 442.119 154.792 442.119 153.525ZM445.219 153.475C445.219 154.475 445.085 155.392 444.819 156.225C444.569 157.058 444.202 157.775 443.719 158.375C443.235 158.975 442.627 159.442 441.894 159.775C441.177 160.108 440.36 160.275 439.444 160.275C438.827 160.275 438.26 160.2 437.744 160.05C437.227 159.9 436.802 159.733 436.469 159.55V164.625H433.444V147.35C434.06 147.183 434.819 147.025 435.719 146.875C436.619 146.725 437.569 146.65 438.569 146.65C439.602 146.65 440.527 146.808 441.344 147.125C442.16 147.442 442.852 147.9 443.419 148.5C444.002 149.083 444.444 149.8 444.744 150.65C445.06 151.483 445.219 152.425 445.219 153.475ZM460.161 153.45C460.161 154.483 460.011 155.425 459.711 156.275C459.411 157.125 458.986 157.85 458.436 158.45C457.886 159.05 457.219 159.517 456.436 159.85C455.669 160.183 454.819 160.35 453.886 160.35C452.953 160.35 452.103 160.183 451.336 159.85C450.569 159.517 449.911 159.05 449.361 158.45C448.811 157.85 448.378 157.125 448.061 156.275C447.761 155.425 447.611 154.483 447.611 153.45C447.611 152.417 447.761 151.483 448.061 150.65C448.378 149.8 448.811 149.075 449.361 148.475C449.928 147.875 450.594 147.417 451.361 147.1C452.128 146.767 452.969 146.6 453.886 146.6C454.803 146.6 455.644 146.767 456.411 147.1C457.194 147.417 457.861 147.875 458.411 148.475C458.961 149.075 459.386 149.8 459.686 150.65C460.003 151.483 460.161 152.417 460.161 153.45ZM457.061 153.45C457.061 152.15 456.778 151.125 456.211 150.375C455.661 149.608 454.886 149.225 453.886 149.225C452.886 149.225 452.103 149.608 451.536 150.375C450.986 151.125 450.711 152.15 450.711 153.45C450.711 154.767 450.986 155.808 451.536 156.575C452.103 157.342 452.886 157.725 453.886 157.725C454.886 157.725 455.661 157.342 456.211 156.575C456.778 155.808 457.061 154.767 457.061 153.45ZM467.828 160.25C466.928 160.233 466.178 160.133 465.578 159.95C464.994 159.767 464.528 159.508 464.178 159.175C463.828 158.825 463.578 158.4 463.428 157.9C463.294 157.383 463.228 156.8 463.228 156.15V141.1L466.253 140.6V155.575C466.253 155.942 466.278 156.25 466.328 156.5C466.394 156.75 466.503 156.967 466.653 157.15C466.803 157.317 467.003 157.45 467.253 157.55C467.519 157.633 467.853 157.7 468.253 157.75L467.828 160.25ZM482.524 153.45C482.524 154.483 482.374 155.425 482.074 156.275C481.774 157.125 481.349 157.85 480.799 158.45C480.249 159.05 479.583 159.517 478.799 159.85C478.033 160.183 477.183 160.35 476.249 160.35C475.316 160.35 474.466 160.183 473.699 159.85C472.933 159.517 472.274 159.05 471.724 158.45C471.174 157.85 470.741 157.125 470.424 156.275C470.124 155.425 469.974 154.483 469.974 153.45C469.974 152.417 470.124 151.483 470.424 150.65C470.741 149.8 471.174 149.075 471.724 148.475C472.291 147.875 472.958 147.417 473.724 147.1C474.491 146.767 475.333 146.6 476.249 146.6C477.166 146.6 478.008 146.767 478.774 147.1C479.558 147.417 480.224 147.875 480.774 148.475C481.324 149.075 481.749 149.8 482.049 150.65C482.366 151.483 482.524 152.417 482.524 153.45ZM479.424 153.45C479.424 152.15 479.141 151.125 478.574 150.375C478.024 149.608 477.249 149.225 476.249 149.225C475.249 149.225 474.466 149.608 473.899 150.375C473.349 151.125 473.074 152.15 473.074 153.45C473.074 154.767 473.349 155.808 473.899 156.575C474.466 157.342 475.249 157.725 476.249 157.725C477.249 157.725 478.024 157.342 478.574 156.575C479.141 155.808 479.424 154.767 479.424 153.45ZM485.641 147.35C486.224 147.183 486.982 147.025 487.916 146.875C488.849 146.725 489.882 146.65 491.016 146.65C492.082 146.65 492.974 146.8 493.691 147.1C494.407 147.383 494.974 147.792 495.391 148.325C495.824 148.842 496.124 149.475 496.291 150.225C496.474 150.958 496.566 151.767 496.566 152.65V160H493.541V153.125C493.541 152.425 493.491 151.833 493.391 151.35C493.307 150.85 493.157 150.45 492.941 150.15C492.741 149.833 492.457 149.608 492.091 149.475C491.741 149.325 491.307 149.25 490.791 149.25C490.407 149.25 490.007 149.275 489.591 149.325C489.174 149.375 488.866 149.417 488.666 149.45V160H485.641V147.35Z" fill="black"/>
<path d="M31.4992 6.59856C23.8707 8.63516 18.4117 11.7954 12.4628 17.835C6.37401 23.8745 3.2946 29.2821 1.26499 37.2178C-1.25453 47.1199 0.00523276 57.8647 4.9043 67.205C8.26365 73.6659 16.3821 81.6016 23.0308 84.8321C30.2394 88.4137 30.9393 88.203 31.2193 82.3741L31.4292 77.7391H27.3C22.051 77.7391 19.1816 76.1239 17.012 71.84C16.1022 70.0141 14.3525 67.7668 13.1627 66.7134C10.6432 64.6768 10.9931 63.1318 13.7926 63.834C16.0322 64.3958 17.3619 65.4493 17.082 66.5027C17.012 66.9943 17.012 67.0645 17.2219 66.7836C17.5719 66.1515 19.4615 67.5561 19.4615 68.5393C19.4615 68.8904 19.1816 68.9606 18.7616 68.75C18.4117 68.5393 18.0618 68.6797 18.0618 69.1011C18.0618 69.5927 18.4817 69.8034 19.0416 69.5927C19.6015 69.382 20.5813 69.8034 21.2112 70.5056C23.9407 73.5254 30.7993 73.1041 31.9191 69.9438C32.339 68.8904 32.829 67.5561 33.1089 66.924C33.4588 66.0111 32.9689 65.6599 30.6594 65.3088C26.4602 64.6768 21.2112 61.7974 19.1116 58.9883C14.9124 53.4403 14.0026 44.0299 17.082 37.4987C18.4117 34.7598 18.9016 32.653 18.8316 30.2652C18.6917 28.4393 18.8316 25.9814 19.1116 24.8577C19.7415 22.0486 22.121 22.0486 27.44 24.7875C31.2892 26.7539 31.5692 26.7539 36.6782 26.0516C40.3875 25.4898 43.3269 25.4898 47.0362 26.0516C52.1453 26.7539 52.4252 26.7539 56.2745 24.7875C61.5934 22.0486 63.973 22.0486 64.6029 24.8577C64.8828 25.9814 65.0228 28.4393 64.8828 30.2652C64.8128 32.653 65.3027 34.7598 66.6325 37.4987C69.7119 44.0299 68.8021 53.4403 64.6029 58.9883C62.4333 61.8677 57.0443 64.747 52.7751 65.3088L49.6257 65.8004L50.8155 67.5561C51.7253 68.9606 52.0753 71.5591 52.3552 78.1605C52.7751 88.7648 52.7751 88.7648 60.6836 84.8321C67.3323 81.6016 75.4508 73.6659 78.8102 67.205C81.7496 61.5867 83.8492 53.2999 83.8492 47.3305C83.8492 41.3612 81.7496 33.0743 78.8102 27.4561C75.8707 21.7677 67.3323 13.1999 61.6634 10.2504C52.4252 5.40469 41.2973 4.07036 31.4992 6.59856Z" fill="black"/>
<path d="M104.16 103C108.187 103 111.267 103.733 113.4 105.2C115.56 106.667 116.64 108.96 116.64 112.08C116.64 113.707 116.347 115.107 115.76 116.28C115.2 117.427 114.373 118.373 113.28 119.12C112.187 119.84 110.853 120.373 109.28 120.72C107.707 121.067 105.907 121.24 103.88 121.24H101.36V131H96.32V103.68C97.4933 103.413 98.7867 103.24 100.2 103.16C101.64 103.053 102.96 103 104.16 103ZM104.52 107.36C103.24 107.36 102.187 107.4 101.36 107.48V116.92H103.8C106.227 116.92 108.093 116.587 109.4 115.92C110.707 115.227 111.36 113.933 111.36 112.04C111.36 111.133 111.187 110.373 110.84 109.76C110.493 109.147 110.013 108.667 109.4 108.32C108.787 107.973 108.053 107.733 107.2 107.6C106.373 107.44 105.48 107.36 104.52 107.36ZM132.922 114.44C132.522 114.307 131.962 114.173 131.242 114.04C130.549 113.88 129.735 113.8 128.802 113.8C128.269 113.8 127.695 113.853 127.082 113.96C126.495 114.067 126.082 114.16 125.842 114.24V131H121.002V111.08C121.935 110.733 123.095 110.413 124.482 110.12C125.895 109.8 127.455 109.64 129.162 109.64C129.482 109.64 129.855 109.667 130.282 109.72C130.709 109.747 131.135 109.8 131.562 109.88C131.989 109.933 132.402 110.013 132.802 110.12C133.202 110.2 133.522 110.28 133.762 110.36L132.922 114.44ZM156.055 120.52C156.055 122.173 155.815 123.68 155.335 125.04C154.855 126.4 154.175 127.56 153.295 128.52C152.415 129.48 151.348 130.227 150.095 130.76C148.868 131.293 147.508 131.56 146.015 131.56C144.521 131.56 143.161 131.293 141.935 130.76C140.708 130.227 139.655 129.48 138.775 128.52C137.895 127.56 137.201 126.4 136.695 125.04C136.215 123.68 135.975 122.173 135.975 120.52C135.975 118.867 136.215 117.373 136.695 116.04C137.201 114.68 137.895 113.52 138.775 112.56C139.681 111.6 140.748 110.867 141.975 110.36C143.201 109.827 144.548 109.56 146.015 109.56C147.481 109.56 148.828 109.827 150.055 110.36C151.308 110.867 152.375 111.6 153.255 112.56C154.135 113.52 154.815 114.68 155.295 116.04C155.801 117.373 156.055 118.867 156.055 120.52ZM151.095 120.52C151.095 118.44 150.641 116.8 149.735 115.6C148.855 114.373 147.615 113.76 146.015 113.76C144.415 113.76 143.161 114.373 142.255 115.6C141.375 116.8 140.935 118.44 140.935 120.52C140.935 122.627 141.375 124.293 142.255 125.52C143.161 126.747 144.415 127.36 146.015 127.36C147.615 127.36 148.855 126.747 149.735 125.52C150.641 124.293 151.095 122.627 151.095 120.52ZM182.041 131H177.201V110.08H182.041V131ZM182.601 103.96C182.601 104.867 182.308 105.587 181.721 106.12C181.134 106.653 180.441 106.92 179.641 106.92C178.814 106.92 178.108 106.653 177.521 106.12C176.934 105.587 176.641 104.867 176.641 103.96C176.641 103.027 176.934 102.293 177.521 101.76C178.108 101.227 178.814 100.96 179.641 100.96C180.441 100.96 181.134 101.227 181.721 101.76C182.308 102.293 182.601 103.027 182.601 103.96ZM169.641 99.96C170.654 99.96 171.508 100.04 172.201 100.2C172.921 100.36 173.481 100.52 173.881 100.68L173.121 104.6C172.748 104.467 172.294 104.347 171.761 104.24C171.254 104.133 170.694 104.08 170.081 104.08C168.481 104.08 167.374 104.507 166.761 105.36C166.174 106.213 165.881 107.32 165.881 108.68V110.08H173.561V114.12H165.881V131H161.041V108.6C161.041 105.88 161.748 103.76 163.161 102.24C164.574 100.72 166.734 99.96 169.641 99.96ZM195.508 131.4C194.068 131.373 192.868 131.213 191.908 130.92C190.975 130.627 190.228 130.213 189.668 129.68C189.108 129.12 188.708 128.44 188.468 127.64C188.255 126.813 188.148 125.88 188.148 124.84V100.76L192.988 99.96V123.92C192.988 124.507 193.028 125 193.108 125.4C193.215 125.8 193.388 126.147 193.628 126.44C193.868 126.707 194.188 126.92 194.588 127.08C195.015 127.213 195.548 127.32 196.188 127.4L195.508 131.4ZM198.943 120.64C198.943 118.8 199.21 117.187 199.743 115.8C200.303 114.413 201.037 113.267 201.943 112.36C202.85 111.427 203.89 110.733 205.063 110.28C206.237 109.8 207.437 109.56 208.663 109.56C211.543 109.56 213.783 110.453 215.383 112.24C217.01 114.027 217.823 116.693 217.823 120.24C217.823 120.507 217.81 120.813 217.783 121.16C217.783 121.48 217.77 121.773 217.743 122.04H203.943C204.077 123.72 204.663 125.027 205.703 125.96C206.77 126.867 208.303 127.32 210.303 127.32C211.477 127.32 212.543 127.213 213.503 127C214.49 126.787 215.263 126.56 215.823 126.32L216.463 130.28C216.197 130.413 215.823 130.56 215.343 130.72C214.89 130.853 214.357 130.973 213.743 131.08C213.157 131.213 212.517 131.32 211.823 131.4C211.13 131.48 210.423 131.52 209.703 131.52C207.863 131.52 206.263 131.253 204.903 130.72C203.543 130.16 202.423 129.4 201.543 128.44C200.663 127.453 200.01 126.307 199.583 125C199.157 123.667 198.943 122.213 198.943 120.64ZM212.983 118.48C212.983 117.813 212.89 117.187 212.703 116.6C212.517 115.987 212.237 115.467 211.863 115.04C211.517 114.587 211.077 114.24 210.543 114C210.037 113.733 209.423 113.6 208.703 113.6C207.957 113.6 207.303 113.747 206.743 114.04C206.183 114.307 205.703 114.667 205.303 115.12C204.93 115.573 204.637 116.093 204.423 116.68C204.21 117.267 204.063 117.867 203.983 118.48H212.983ZM239.251 127.24C241.064 127.24 242.384 126.933 243.211 126.32C244.038 125.707 244.451 124.84 244.451 123.72C244.451 123.053 244.304 122.48 244.011 122C243.744 121.52 243.344 121.093 242.811 120.72C242.304 120.32 241.678 119.96 240.931 119.64C240.184 119.293 239.331 118.96 238.371 118.64C237.411 118.293 236.478 117.92 235.571 117.52C234.691 117.093 233.904 116.573 233.211 115.96C232.544 115.347 231.998 114.613 231.571 113.76C231.171 112.907 230.971 111.88 230.971 110.68C230.971 108.173 231.838 106.213 233.571 104.8C235.304 103.36 237.664 102.64 240.651 102.64C242.384 102.64 243.918 102.84 245.251 103.24C246.611 103.613 247.678 104.027 248.451 104.48L246.891 108.56C245.984 108.053 244.984 107.667 243.891 107.4C242.824 107.133 241.718 107 240.571 107C239.211 107 238.144 107.28 237.371 107.84C236.624 108.4 236.251 109.187 236.251 110.2C236.251 110.813 236.371 111.347 236.611 111.8C236.878 112.227 237.238 112.613 237.691 112.96C238.171 113.307 238.718 113.627 239.331 113.92C239.971 114.213 240.664 114.493 241.411 114.76C242.718 115.24 243.878 115.733 244.891 116.24C245.931 116.72 246.798 117.307 247.491 118C248.211 118.667 248.758 119.467 249.131 120.4C249.504 121.307 249.691 122.413 249.691 123.72C249.691 126.227 248.798 128.173 247.011 129.56C245.251 130.92 242.664 131.6 239.251 131.6C238.104 131.6 237.051 131.52 236.091 131.36C235.158 131.227 234.318 131.053 233.571 130.84C232.851 130.627 232.224 130.413 231.691 130.2C231.158 129.96 230.731 129.747 230.411 129.56L231.891 125.44C232.611 125.84 233.584 126.24 234.811 126.64C236.038 127.04 237.518 127.24 239.251 127.24ZM252.733 120.64C252.733 118.8 252.999 117.187 253.533 115.8C254.093 114.413 254.826 113.267 255.733 112.36C256.639 111.427 257.679 110.733 258.853 110.28C260.026 109.8 261.226 109.56 262.453 109.56C265.333 109.56 267.573 110.453 269.173 112.24C270.799 114.027 271.613 116.693 271.613 120.24C271.613 120.507 271.599 120.813 271.573 121.16C271.573 121.48 271.559 121.773 271.533 122.04H257.733C257.866 123.72 258.453 125.027 259.493 125.96C260.559 126.867 262.093 127.32 264.093 127.32C265.266 127.32 266.333 127.213 267.293 127C268.279 126.787 269.053 126.56 269.613 126.32L270.253 130.28C269.986 130.413 269.613 130.56 269.133 130.72C268.679 130.853 268.146 130.973 267.533 131.08C266.946 131.213 266.306 131.32 265.613 131.4C264.919 131.48 264.213 131.52 263.493 131.52C261.653 131.52 260.053 131.253 258.693 130.72C257.333 130.16 256.213 129.4 255.333 128.44C254.453 127.453 253.799 126.307 253.373 125C252.946 123.667 252.733 122.213 252.733 120.64ZM266.773 118.48C266.773 117.813 266.679 117.187 266.493 116.6C266.306 115.987 266.026 115.467 265.653 115.04C265.306 114.587 264.866 114.24 264.333 114C263.826 113.733 263.213 113.6 262.493 113.6C261.746 113.6 261.093 113.747 260.533 114.04C259.973 114.307 259.493 114.667 259.093 115.12C258.719 115.573 258.426 116.093 258.213 116.68C257.999 117.267 257.853 117.867 257.773 118.48H266.773ZM284.104 127.6C285.597 127.6 286.731 127.52 287.504 127.36V122C287.237 121.92 286.851 121.84 286.344 121.76C285.837 121.68 285.277 121.64 284.664 121.64C284.131 121.64 283.584 121.68 283.024 121.76C282.491 121.84 281.997 121.987 281.544 122.2C281.117 122.413 280.771 122.72 280.504 123.12C280.237 123.493 280.104 123.973 280.104 124.56C280.104 125.707 280.464 126.507 281.184 126.96C281.904 127.387 282.877 127.6 284.104 127.6ZM283.704 109.56C285.304 109.56 286.651 109.76 287.744 110.16C288.837 110.56 289.704 111.12 290.344 111.84C291.011 112.56 291.477 113.44 291.744 114.48C292.037 115.493 292.184 116.613 292.184 117.84V130.52C291.437 130.68 290.304 130.867 288.784 131.08C287.291 131.32 285.597 131.44 283.704 131.44C282.451 131.44 281.304 131.32 280.264 131.08C279.224 130.84 278.331 130.453 277.584 129.92C276.864 129.387 276.291 128.693 275.864 127.84C275.464 126.987 275.264 125.933 275.264 124.68C275.264 123.48 275.491 122.467 275.944 121.64C276.424 120.813 277.064 120.147 277.864 119.64C278.664 119.107 279.584 118.733 280.624 118.52C281.691 118.28 282.797 118.16 283.944 118.16C284.477 118.16 285.037 118.2 285.624 118.28C286.211 118.333 286.837 118.44 287.504 118.6V117.8C287.504 117.24 287.437 116.707 287.304 116.2C287.171 115.693 286.931 115.253 286.584 114.88C286.264 114.48 285.824 114.173 285.264 113.96C284.731 113.747 284.051 113.64 283.224 113.64C282.104 113.64 281.077 113.72 280.144 113.88C279.211 114.04 278.451 114.227 277.864 114.44L277.264 110.52C277.877 110.307 278.771 110.093 279.944 109.88C281.117 109.667 282.371 109.56 283.704 109.56ZM310.031 114.44C309.631 114.307 309.071 114.173 308.351 114.04C307.658 113.88 306.845 113.8 305.911 113.8C305.378 113.8 304.805 113.853 304.191 113.96C303.605 114.067 303.191 114.16 302.951 114.24V131H298.111V111.08C299.045 110.733 300.205 110.413 301.591 110.12C303.005 109.8 304.565 109.64 306.271 109.64C306.591 109.64 306.965 109.667 307.391 109.72C307.818 109.747 308.245 109.8 308.671 109.88C309.098 109.933 309.511 110.013 309.911 110.12C310.311 110.2 310.631 110.28 310.871 110.36L310.031 114.44ZM313.084 120.56C313.084 119.013 313.324 117.573 313.804 116.24C314.284 114.88 314.964 113.707 315.844 112.72C316.751 111.733 317.844 110.96 319.124 110.4C320.404 109.84 321.844 109.56 323.444 109.56C325.417 109.56 327.284 109.92 329.044 110.64L328.004 114.6C327.444 114.36 326.804 114.16 326.084 114C325.391 113.84 324.644 113.76 323.844 113.76C321.951 113.76 320.511 114.36 319.524 115.56C318.537 116.733 318.044 118.4 318.044 120.56C318.044 122.64 318.511 124.293 319.444 125.52C320.377 126.72 321.951 127.32 324.164 127.32C324.991 127.32 325.804 127.24 326.604 127.08C327.404 126.92 328.097 126.72 328.684 126.48L329.364 130.48C328.831 130.747 328.017 130.987 326.924 131.2C325.857 131.413 324.751 131.52 323.604 131.52C321.817 131.52 320.257 131.253 318.924 130.72C317.617 130.16 316.524 129.4 315.644 128.44C314.791 127.453 314.151 126.293 313.724 124.96C313.297 123.6 313.084 122.133 313.084 120.56ZM333.111 131V100.76L337.951 99.96V110.32C338.485 110.133 339.098 109.973 339.791 109.84C340.511 109.707 341.218 109.64 341.911 109.64C343.591 109.64 344.978 109.88 346.071 110.36C347.191 110.813 348.085 111.467 348.751 112.32C349.418 113.147 349.885 114.147 350.151 115.32C350.445 116.493 350.591 117.8 350.591 119.24V131H345.751V120C345.751 118.88 345.671 117.933 345.511 117.16C345.378 116.36 345.138 115.72 344.791 115.24C344.471 114.733 344.031 114.373 343.471 114.16C342.911 113.92 342.218 113.8 341.391 113.8C340.751 113.8 340.098 113.867 339.431 114C338.765 114.133 338.271 114.253 337.951 114.36V131H333.111ZM373.808 103C377.835 103 380.915 103.733 383.048 105.2C385.208 106.667 386.288 108.96 386.288 112.08C386.288 113.707 385.995 115.107 385.408 116.28C384.848 117.427 384.022 118.373 382.928 119.12C381.835 119.84 380.502 120.373 378.928 120.72C377.355 121.067 375.555 121.24 373.528 121.24H371.008V131H365.968V103.68C367.142 103.413 368.435 103.24 369.848 103.16C371.288 103.053 372.608 103 373.808 103ZM374.168 107.36C372.888 107.36 371.835 107.4 371.008 107.48V116.92H373.448C375.875 116.92 377.742 116.587 379.048 115.92C380.355 115.227 381.008 113.933 381.008 112.04C381.008 111.133 380.835 110.373 380.488 109.76C380.142 109.147 379.662 108.667 379.048 108.32C378.435 107.973 377.702 107.733 376.848 107.6C376.022 107.44 375.128 107.36 374.168 107.36ZM402.57 114.44C402.17 114.307 401.61 114.173 400.89 114.04C400.197 113.88 399.384 113.8 398.45 113.8C397.917 113.8 397.344 113.853 396.73 113.96C396.144 114.067 395.73 114.16 395.49 114.24V131H390.65V111.08C391.584 110.733 392.744 110.413 394.13 110.12C395.544 109.8 397.104 109.64 398.81 109.64C399.13 109.64 399.504 109.667 399.93 109.72C400.357 109.747 400.784 109.8 401.21 109.88C401.637 109.933 402.05 110.013 402.45 110.12C402.85 110.2 403.17 110.28 403.41 110.36L402.57 114.44ZM425.703 120.52C425.703 122.173 425.463 123.68 424.983 125.04C424.503 126.4 423.823 127.56 422.943 128.52C422.063 129.48 420.996 130.227 419.743 130.76C418.516 131.293 417.156 131.56 415.663 131.56C414.17 131.56 412.81 131.293 411.583 130.76C410.356 130.227 409.303 129.48 408.423 128.52C407.543 127.56 406.85 126.4 406.343 125.04C405.863 123.68 405.623 122.173 405.623 120.52C405.623 118.867 405.863 117.373 406.343 116.04C406.85 114.68 407.543 113.52 408.423 112.56C409.33 111.6 410.396 110.867 411.623 110.36C412.85 109.827 414.196 109.56 415.663 109.56C417.13 109.56 418.476 109.827 419.703 110.36C420.956 110.867 422.023 111.6 422.903 112.56C423.783 113.52 424.463 114.68 424.943 116.04C425.45 117.373 425.703 118.867 425.703 120.52ZM420.743 120.52C420.743 118.44 420.29 116.8 419.383 115.6C418.503 114.373 417.263 113.76 415.663 113.76C414.063 113.76 412.81 114.373 411.903 115.6C411.023 116.8 410.583 118.44 410.583 120.52C410.583 122.627 411.023 124.293 411.903 125.52C412.81 126.747 414.063 127.36 415.663 127.36C417.263 127.36 418.503 126.747 419.383 125.52C420.29 124.293 420.743 122.627 420.743 120.52ZM428.009 138.44C427.663 138.44 427.183 138.4 426.569 138.32C425.929 138.267 425.369 138.147 424.889 137.96L425.529 134C426.116 134.187 426.823 134.28 427.649 134.28C428.769 134.28 429.556 133.947 430.009 133.28C430.463 132.64 430.689 131.667 430.689 130.36V110.08H435.529V130.44C435.529 133.16 434.876 135.173 433.569 136.48C432.289 137.787 430.436 138.44 428.009 138.44ZM436.049 103.96C436.049 104.867 435.756 105.587 435.169 106.12C434.583 106.653 433.889 106.92 433.089 106.92C432.263 106.92 431.556 106.653 430.969 106.12C430.383 105.587 430.089 104.867 430.089 103.96C430.089 103.027 430.383 102.293 430.969 101.76C431.556 101.227 432.263 100.96 433.089 100.96C433.889 100.96 434.583 101.227 435.169 101.76C435.756 102.293 436.049 103.027 436.049 103.96ZM440.545 120.64C440.545 118.8 440.812 117.187 441.345 115.8C441.905 114.413 442.638 113.267 443.545 112.36C444.452 111.427 445.492 110.733 446.665 110.28C447.838 109.8 449.038 109.56 450.265 109.56C453.145 109.56 455.385 110.453 456.985 112.24C458.612 114.027 459.425 116.693 459.425 120.24C459.425 120.507 459.412 120.813 459.385 121.16C459.385 121.48 459.372 121.773 459.345 122.04H445.545C445.678 123.72 446.265 125.027 447.305 125.96C448.372 126.867 449.905 127.32 451.905 127.32C453.078 127.32 454.145 127.213 455.105 127C456.092 126.787 456.865 126.56 457.425 126.32L458.065 130.28C457.798 130.413 457.425 130.56 456.945 130.72C456.492 130.853 455.958 130.973 455.345 131.08C454.758 131.213 454.118 131.32 453.425 131.4C452.732 131.48 452.025 131.52 451.305 131.52C449.465 131.52 447.865 131.253 446.505 130.72C445.145 130.16 444.025 129.4 443.145 128.44C442.265 127.453 441.612 126.307 441.185 125C440.758 123.667 440.545 122.213 440.545 120.64ZM454.585 118.48C454.585 117.813 454.492 117.187 454.305 116.6C454.118 115.987 453.838 115.467 453.465 115.04C453.118 114.587 452.678 114.24 452.145 114C451.638 113.733 451.025 113.6 450.305 113.6C449.558 113.6 448.905 113.747 448.345 114.04C447.785 114.307 447.305 114.667 446.905 115.12C446.532 115.573 446.238 116.093 446.025 116.68C445.812 117.267 445.665 117.867 445.585 118.48H454.585ZM463.397 120.56C463.397 119.013 463.637 117.573 464.117 116.24C464.597 114.88 465.277 113.707 466.157 112.72C467.063 111.733 468.157 110.96 469.437 110.4C470.717 109.84 472.157 109.56 473.757 109.56C475.73 109.56 477.597 109.92 479.357 110.64L478.317 114.6C477.757 114.36 477.117 114.16 476.397 114C475.703 113.84 474.957 113.76 474.157 113.76C472.263 113.76 470.823 114.36 469.837 115.56C468.85 116.733 468.357 118.4 468.357 120.56C468.357 122.64 468.823 124.293 469.757 125.52C470.69 126.72 472.263 127.32 474.477 127.32C475.303 127.32 476.117 127.24 476.917 127.08C477.717 126.92 478.41 126.72 478.997 126.48L479.677 130.48C479.143 130.747 478.33 130.987 477.237 131.2C476.17 131.413 475.063 131.52 473.917 131.52C472.13 131.52 470.57 131.253 469.237 130.72C467.93 130.16 466.837 129.4 465.957 128.44C465.103 127.453 464.463 126.293 464.037 124.96C463.61 123.6 463.397 122.133 463.397 120.56ZM483.184 104.56L488.024 103.76V110.08H495.464V114.12H488.024V122.64C488.024 124.32 488.29 125.52 488.824 126.24C489.357 126.96 490.264 127.32 491.544 127.32C492.424 127.32 493.197 127.227 493.864 127.04C494.557 126.853 495.104 126.68 495.504 126.52L496.304 130.36C495.744 130.6 495.01 130.84 494.104 131.08C493.197 131.347 492.13 131.48 490.904 131.48C489.41 131.48 488.157 131.28 487.144 130.88C486.157 130.48 485.37 129.907 484.784 129.16C484.197 128.387 483.784 127.467 483.544 126.4C483.304 125.307 483.184 124.067 483.184 122.68V104.56Z" fill="black"/>
</svg>
